<svg xmlns="http://www.w3.org/2000/svg" width="1200" height="630" viewBox="0 0 1200 630">
  <defs>
    <style>@import url('https://fonts.googleapis.com/css2?family=Heebo:wght@700&amp;display=swap');</style>
  </defs>
  <rect width="1200" height="630" fill="#fef7d2"/>
  <g transform="translate(275.0,22.0) scale(1.3)">
    <path d="M250 252.5 A160 160 0 0 0 250 -8.1 A160 160 0 0 0 250 252.5Z" fill="#6bbf59"/>
    <path d="M247.7 250.8 A160 160 0 0 0 495.5 170.2 A160 160 0 0 0 247.7 250.8Z" fill="#6bbf59"/>
    <path d="M248.6 248 A160 160 0 0 0 401.7 458.8 A160 160 0 0 0 248.6 248Z" fill="#6bbf59"/>
    <path d="M251.4 248 A160 160 0 0 0 98.3 458.8 A160 160 0 0 0 251.4 248Z" fill="#6bbf59"/>
    <path d="M252.3 250.8 A160 160 0 0 0 4.5 170.2 A160 160 0 0 0 252.3 250.8Z" fill="#6bbf59"/>
    <path d="M311 166 A160 160 0 0 1 250 252.5 A160 160 0 0 1 247.7 250.8 A160 160 0 0 1 311 166Z" fill="#3a7d44"/>
    <path d="M247.7 250.8 A160 160 0 0 1 248.6 248 A160 160 0 0 1 348.7 282.1 A160 160 0 0 1 247.7 250.8Z" fill="#3a7d44"/>
    <path d="M248.6 248 A160 160 0 0 1 251.4 248 A160 160 0 0 1 250 353.8 A160 160 0 0 1 248.6 248Z" fill="#3a7d44"/>
    <path d="M251.4 248 A160 160 0 0 1 252.3 250.8 A160 160 0 0 1 151.3 282.1 A160 160 0 0 1 251.4 248Z" fill="#3a7d44"/>
    <path d="M189 166 A160 160 0 0 1 252.3 250.8 A160 160 0 0 1 250 252.5 A160 160 0 0 1 189 166Z" fill="#3a7d44"/>
    <circle cx="250" cy="250" r="4" fill="#3a7d44"/>
  </g>
  <text x="600" y="555"
        font-family="Heebo,Arial,sans-serif" font-weight="700"
        font-size="72" fill="#3a5a30"
        text-anchor="middle" direction="rtl">&#x5D2;&#x5DD; &#x5D5;&#x5D2;&#x5DD; &#x5D5;&#x5D2;&#x5DD;</text>
</svg>